<?xml version="1.0" standalone="no"?>
<!DOCTYPE svg PUBLIC "-//W3C//DTD SVG 20010904//EN"
 "http://www.w3.org/TR/2001/REC-SVG-20010904/DTD/svg10.dtd">
<svg version="1.0" xmlns="http://www.w3.org/2000/svg"
 width="713.000000pt" height="713.000000pt" viewBox="0 0 713.000000 713.000000"
 preserveAspectRatio="xMidYMid meet">
<metadata>
Created by potrace 1.14, written by Peter Selinger 2001-2017
</metadata>
<g transform="translate(0.000000,713.000000) scale(0.100000,-0.100000)"
fill="#000000" stroke="none">
<path d="M3507 6274 c-1 -1 -51 -4 -112 -8 -60 -3 -119 -8 -130 -10 -11 -2
-47 -7 -80 -11 -49 -5 -168 -28 -315 -61 -48 -10 -271 -86 -353 -119 -768
-311 -1367 -950 -1627 -1736 -39 -117 -83 -281 -94 -354 -4 -22 -8 -47 -11
-55 -4 -15 -23 -156 -32 -245 -12 -124 -6 -447 12 -590 78 -620 350 -1188 780
-1627 138 -140 251 -216 391 -262 79 -26 93 -28 194 -32 186 -7 319 44 610
234 124 82 223 153 228 165 2 4 8 7 13 7 6 0 15 5 22 10 7 6 37 29 67 51 30
23 72 55 94 72 344 279 466 287 771 52 511 -395 768 -548 990 -590 40 -8 154
-7 213 1 76 10 204 61 284 114 41 27 123 98 183 160 134 136 115 115 207 231
312 393 509 850 583 1354 4 22 8 51 10 64 27 163 23 560 -9 757 -2 16 -7 49
-11 74 -79 534 -352 1038 -804 1490 -441 441 -936 722 -1421 806 -14 3 -47 9
-75 14 -45 8 -108 17 -175 26 -66 8 -396 23 -403 18z m204 -1218 c36 -3 72 -8
80 -10 8 -3 30 -7 49 -10 60 -9 192 -56 271 -97 169 -87 322 -221 426 -371
251 -362 276 -821 68 -1203 -178 -327 -514 -557 -875 -600 -60 -7 -241 -7
-262 -1 -7 3 -37 7 -67 11 -29 3 -57 7 -61 10 -3 2 -17 6 -31 8 -52 10 -158
52 -244 95 -325 167 -556 489 -614 857 -15 98 -6 328 18 422 97 387 354 679
726 824 17 7 35 13 40 15 187 55 284 65 476 50z"/>
</g>
</svg>
